{"title":"Snitch 2013 HDCAM - DiVX MP3 - CLEANED AUDIO - C00KIEBOY","uid":8211555,"size":1994578519,"categoryP":"video","categoryS":"movies","magnet":"?xt=urn:btih:ce9b5b4a2ed983101620ba6a147bad6b44886bef&amp;dn=Snitch+2013+HDCAM+-+DiVX+MP3+-+CLEANED+AUDIO+-+C00KIEBOY&amp;tr=udp%3A%2F%2Ftracker.openbittorrent.com%3A80&amp;tr=udp%3A%2F%2Fopen.demonii.com%3A1337&amp;tr=udp%3A%2F%2Ftracker.coppersurfer.tk%3A6969&amp;tr=udp%3A%2F%2Fexodus.desync.com%3A6969","seeders":1,"leechers":0,"uploader":"sceneline","files":6,"time":1362250265,"description":"- &lt;a href=&quot;\nhttp://www.Speed.Cd&quot; rel=&quot;nofollow&quot; target=&quot;_NEW&quot;&gt;\nhttp://www.Speed.Cd&lt;/a&gt;\n &lt;a href=&quot;\nhttp://www.Speed.Cd&quot; rel=&quot;nofollow&quot; target=&quot;_NEW&quot;&gt;\nhttp://www.Speed.Cd&lt;/a&gt;       the fast  and The Hottest Private Tracker on the net\n\nPlease Seed back to make the speed Faster!!\n ............ NFO .............\n-        _____ _____  _____ _   _______ ___________  _______   __\n       /  __   _  ||  _  | | / /_   _|  ___| ___ |  _    / /\n       | /  / | | || | | | |/ /  | | | |__ | |_/ /| | | | V /\n       | |   | | | || | | |      | | |  __|| ___ | | | |  /\n       | __/ _/ / _/ / |  _| |_| |___| |_/ / _/ / | |\n        ____/___/  ___/_| _/___/____/____/  ___/  _/\n\n\n---------------------------------------------------------------------\nTITLE: Snitch 2013 HDCAM - DiVX MP3 - CLEANED AUDIO - C00KIEBOY\n\n                                                                                         \nIMDB:http://www.imdb.com/title/tt0882977/?ref_=sr_1\n                                                                                        \nALL CREDITS GO TO ORIGINAL SOURCE/S:\n\nVIDEO - A FRIEND\nAUDIO - A FRIEND\n\n---------------------------------------------------------------------\nGreetz: tommiecook, adtrg, matine, 26k, cm8, 1mperium,\n---------------------------------------------------------------------\n\nGeneral\n\nFormat                                   : AVI\nFormat/Info                              : Audio Video Interleave\nFile size                                : 1.82 GiB\nDuration                                 : 1h 45mn\nOverall bit rate                         : 2 464 Kbps\nWriting library                          : VirtualDub build 32842/release\n\nVideo\nID                                       : 0\nFormat                                   : MPEG-4 Visual\nFormat settings, BVOP                    : Yes\nFormat settings, QPel                    : No\nFormat settings, GMC                     : No warppoints\nFormat settings, Matrix                  : Default (H.263)\nCodec ID                                 : DX50\nCodec ID/Hint                            : DivX 5\nDuration                                 : 1h 45mn\nBit rate                                 : 2 197 Kbps\nWidth                                    : 820 pixels\nHeight                                   : 360 pixels\nDisplay aspect ratio                     : 2.25:1\nFrame rate                               : 29.970 fps\nColor space                              : YUV\nChroma subsampling                       : 4:2:0\nBit depth                                : 8 bits\nScan type                                : Progressive\nCompression mode                         : Lossy\nBits/(Pixel*Frame)                       : 0.248\nStream size                              : 1.62 GiB (89%)\nWriting library                          : DivX 6.8.5 (UTC 2009-08-20)\n\nAudio\nID                                       : 1\nFormat                                   : MPEG Audio\nFormat version                           : Version 1\nFormat profile                           : Layer 3\nCodec ID                                 : 55\nCodec ID/Hint                            : MP3\nDuration                                 : 1h 45mn\nBit rate mode                            : Constant\nBit rate                                 : 256 Kbps\nChannel(s)                               : 2 channels\nSampling rate                            : 44.1 KHz\nCompression mode                         : Lossy\nStream size                              : 194 MiB (10%)\nAlignment                                : Split accross interleaves\nInterleave, duration                     : 33 ms (1.00 video frame)\nInterleave, preload duration             : 500 ms\n\n\n\n\n---------------------------------------------------------------------\nWORK DONE:\n\nVIDEO: CROPPED, RESIZED, FIXED COLRS, DENOISED, REMOVED BAD PIXELS ECT\n\nAUDIO: RUN THROUGH SOUND FORGE\n\n---------------------------------------------------------------------\nSCREENSHOTS:\n &lt;a href=&quot;\nhttp://www.freeimgshost.com/fullsize/ncsjyx3zxuuzfhzdluz.png&quot; rel=&quot;nofollow&quot; target=&quot;_NEW&quot;&gt;\nhttp://www.freeimgshost.com/fullsize/ncsjyx3zxuuzfhzdluz.png&lt;/a&gt; &lt;a href=&quot;\nhttp://www.freeimgshost.com/fullsize/iw62nncunhcqw6q9x5u1.png&quot; rel=&quot;nofollow&quot; target=&quot;_NEW&quot;&gt;\nhttp://www.freeimgshost.com/fullsize/iw62nncunhcqw6q9x5u1.png&lt;/a&gt; &lt;a href=&quot;\nhttp://www.freeimgshost.com/fullsize/z3ehemczrz05izmg3veo.png&quot; rel=&quot;nofollow&quot; target=&quot;_NEW&quot;&gt;\nhttp://www.freeimgshost.com/fullsize/z3ehemczrz05izmg3veo.png&lt;/a&gt; &lt;a href=&quot;\nhttp://www.freeimgshost.com/fullsize/ejq3hlvhz0t0ftgsk7l.png&quot; rel=&quot;nofollow&quot; target=&quot;_NEW&quot;&gt;\nhttp://www.freeimgshost.com/fullsize/ejq3hlvhz0t0ftgsk7l.png&lt;/a&gt; &lt;a href=&quot;\nhttp://www.freeimgshost.com/fullsize/72epvsr7roibdudp4zob.png&quot; rel=&quot;nofollow&quot; target=&quot;_NEW&quot;&gt;\nhttp://www.freeimgshost.com/fullsize/72epvsr7roibdudp4zob.png&lt;/a&gt; &lt;a href=&quot;\nhttp://www.freeimgshost.com/fullsize/w0ja9k7ixkoq9eia1s9v.png&quot; rel=&quot;nofollow&quot; target=&quot;_NEW&quot;&gt;\nhttp://www.freeimgshost.com/fullsize/w0ja9k7ixkoq9eia1s9v.png&lt;/a&gt; &lt;a href=&quot;\nhttp://www.freeimgshost.com/fullsize/foz7w13ew85ogmwttux4.png&quot; rel=&quot;nofollow&quot; target=&quot;_NEW&quot;&gt;\nhttp://www.freeimgshost.com/fullsize/foz7w13ew85ogmwttux4.png&lt;/a&gt;","torrent":{"xt":"urn:btih:ce9b5b4a2ed983101620ba6a147bad6b44886bef","amp;dn":"Snitch+2013+HDCAM+-+DiVX+MP3+-+CLEANED+AUDIO+-+C00KIEBOY","amp;tr":["udp%3A%2F%2Ftracker.openbittorrent.com%3A80","udp%3A%2F%2Fopen.demonii.com%3A1337","udp%3A%2F%2Ftracker.coppersurfer.tk%3A6969","udp%3A%2F%2Fexodus.desync.com%3A6969"],"infoHash":"ce9b5b4a2ed983101620ba6a147bad6b44886bef","infoHashBuffer":{"type":"Buffer","data":[206,155,91,74,46,217,131,16,22,32,186,106,20,123,173,107,68,136,107,239]},"announce":[],"urlList":[]}}